<?xml version="1.0" encoding="UTF-8"?>
<!DOCTYPE svg PUBLIC "-//W3C//DTD SVG 1.1//EN" "http://www.w3.org/Graphics/SVG/1.1/DTD/svg11.dtd">
<svg xmlns="http://www.w3.org/2000/svg" version="1.1" width="512px" height="512px" style="shape-rendering:geometricPrecision; text-rendering:geometricPrecision; image-rendering:optimizeQuality; fill-rule:evenodd; clip-rule:evenodd" xmlns:xlink="http://www.w3.org/1999/xlink">
<g><path style="opacity:0.996" fill="#48b02c" d="M 232.5,-0.5 C 247.833,-0.5 263.167,-0.5 278.5,-0.5C 368.144,10.3879 435.644,54.7213 481,132.5C 497.695,163.971 507.861,197.304 511.5,232.5C 511.5,247.833 511.5,263.167 511.5,278.5C 500.612,368.144 456.279,435.644 378.5,481C 347.029,497.695 313.696,507.861 278.5,511.5C 263.167,511.5 247.833,511.5 232.5,511.5C 142.856,500.612 75.3562,456.279 30,378.5C 13.3053,347.029 3.1386,313.696 -0.5,278.5C -0.5,263.167 -0.5,247.833 -0.5,232.5C 10.3875,142.857 54.7208,75.3573 132.5,30C 163.971,13.3053 197.304,3.1386 232.5,-0.5 Z M 169.5,117.5 C 204.851,114.192 233.517,126.192 255.5,153.5C 277.434,126.051 306.101,114.218 341.5,118C 386.584,126.266 408.917,153.433 408.5,199.5C 408.246,227.658 399.746,252.991 383,275.5C 373.577,287.594 363.41,299.094 352.5,310C 320.167,337.5 287.833,365 255.5,392.5C 229.939,370.103 203.939,348.269 177.5,327C 155.797,309.636 137.297,289.469 122,266.5C 99.5676,229.957 96.5676,191.957 113,152.5C 126.494,132.331 145.328,120.664 169.5,117.5 Z"/></g>
</svg>
