<?xml version="1.0" encoding="UTF-8"?>
<!DOCTYPE svg PUBLIC "-//W3C//DTD SVG 1.1//EN" "http://www.w3.org/Graphics/SVG/1.1/DTD/svg11.dtd">
<svg xmlns="http://www.w3.org/2000/svg" version="1.1" width="512px" height="512px" style="shape-rendering:geometricPrecision; text-rendering:geometricPrecision; image-rendering:optimizeQuality; fill-rule:evenodd; clip-rule:evenodd" xmlns:xlink="http://www.w3.org/1999/xlink">
<g><path style="opacity:0.997" fill="#48b02c" d="M 232.5,-0.5 C 247.833,-0.5 263.167,-0.5 278.5,-0.5C 368.144,10.3879 435.644,54.7213 481,132.5C 497.695,163.971 507.861,197.304 511.5,232.5C 511.5,247.833 511.5,263.167 511.5,278.5C 500.612,368.144 456.279,435.644 378.5,481C 347.029,497.695 313.696,507.861 278.5,511.5C 263.167,511.5 247.833,511.5 232.5,511.5C 142.856,500.612 75.3562,456.279 30,378.5C 13.3053,347.029 3.1386,313.696 -0.5,278.5C -0.5,263.167 -0.5,247.833 -0.5,232.5C 10.3875,142.857 54.7208,75.3573 132.5,30C 163.971,13.3053 197.304,3.1386 232.5,-0.5 Z"/></g>
<g><path style="opacity:1" fill="#fcfdfc" d="M 174.5,128.5 C 205.752,126.716 232.752,136.383 255.5,157.5C 287.813,128.005 324.48,121.172 365.5,137C 392.514,150.381 407.348,172.214 410,202.5C 412.88,242.193 401.214,276.86 375,306.5C 368.532,313.97 361.698,321.136 354.5,328C 330.418,349.419 305.752,370.086 280.5,390C 272.016,397.65 263.682,405.484 255.5,413.5C 227.198,387.023 197.864,361.857 167.5,338C 149.496,322.002 133.663,304.168 120,284.5C 100.903,252.583 95.903,218.583 105,182.5C 113.074,158.759 128.908,142.592 152.5,134C 159.954,132.083 167.287,130.249 174.5,128.5 Z"/></g>
<g><path style="opacity:1" fill="#48b02c" d="M 174.5,146.5 C 193.656,144.956 211.656,148.789 228.5,158C 240.172,165.837 249.172,176.003 255.5,188.5C 274.985,155.096 303.985,141.596 342.5,148C 371.029,154.195 387.529,171.695 392,200.5C 395.263,236.71 384.929,268.377 361,295.5C 354.865,302.636 348.365,309.469 341.5,316C 313.019,340.404 284.352,364.571 255.5,388.5C 230.869,367.19 205.869,346.357 180.5,326C 164.369,312.193 150.203,296.693 138,279.5C 117.593,248.245 113.26,214.912 125,179.5C 136.092,160.372 152.592,149.372 174.5,146.5 Z"/></g>
</svg>
